PathFileType	4	(X/Y/Z)	C:/Users/opensim2020/Desktop/walking_exp_matlab/subject03_walking08_straight_01.trc																																																																																																																																																							
DataRate	CameraRate	NumFrames	NumMarkers	Units	OrigDataRate	OrigDataStartFrame	OrigNumFrames																																																																																																																																																			
100	100	4	51	mm	100	764	451																																																																																																																																																			
Frame#	Time	LFHD			RFHD			LBHD			RBHD			C7			T10			CLAV			STRN			RBAK			LSHO			LUPA			LELB			LFRM			LWRA			LWRB			LFIN			RSHO			RUPA			RELB			RFRM			RWRA			RWRB			RFIN			LASI			RASI			LPSI			RPSI			LTHI			LKNE			LTIB			LANK			LHEE			LTOE			RTHI			RKNE			RTIB			RANK			RHEE			RTOE			*39			*40			*41			*42			*43			*44			*45			*46			*47			*48			*49			*50		
		X1	Y1	Z1	X2	Y2	Z2	X3	Y3	Z3	X4	Y4	Z4	X5	Y5	Z5	X6	Y6	Z6	X7	Y7	Z7	X8	Y8	Z8	X9	Y9	Z9	X10	Y10	Z10	X11	Y11	Z11	X12	Y12	Z12	X13	Y13	Z13	X14	Y14	Z14	X15	Y15	Z15	X16	Y16	Z16	X17	Y17	Z17	X18	Y18	Z18	X19	Y19	Z19	X20	Y20	Z20	X21	Y21	Z21	X22	Y22	Z22	X23	Y23	Z23	X24	Y24	Z24	X25	Y25	Z25	X26	Y26	Z26	X27	Y27	Z27	X28	Y28	Z28	X29	Y29	Z29	X30	Y30	Z30	X31	Y31	Z31	X32	Y32	Z32	X33	Y33	Z33	X34	Y34	Z34	X35	Y35	Z35	X36	Y36	Z36	X37	Y37	Z37	X38	Y38	Z38	X39	Y39	Z39	X40	Y40	Z40	X41	Y41	Z41	X42	Y42	Z42	X43	Y43	Z43	X44	Y44	Z44	X45	Y45	Z45	X46	Y46	Z46	X47	Y47	Z47	X48	Y48	Z48	X49	Y49	Z49	X50	Y50	Z50	X51	Y51	Z51
																																																																																																																																																										
282	2.81	256.35312	1612.81433	-1078.47693	233.72879	1616.17834	-947.15009	130.83031	1565.63147	-1095.27197	113.80837	1568.69714	-965.54993	90.74027	1411.17358	-1042.56689	45.25374	1100.25488	-1042.11243	212.17891	1332.74512	-1029.88782	249.43788	1166.51855	-1035.94641	25.83516	1237.297	-951.9353	185.50246	1372.69849	-1187.72681	210.73717	1183.10437	-1268.28345	243.77773	1066.35669	-1285.5564	308.09912	953.83636	-1281.25671	361.66675	849.39465	-1247.04199	343.47055	846.77448	-1299.69165	387.80786	776.19299	-1287.91077	152.63377	1354.11462	-874.17053	143.68587	1131.67371	-802.05847	158.49319	1019.84448	-788.49213	178.40823	884.51532	-788.02808	212.9637	791.15045	-823.80603	180.3726	784.32471	-781.38086	206.40097	715.3623	-790.1145	210.35439	932.12439	-1151.22974	206.69064	933.88623	-914.26233	47.3026	956.61743	-1102.98389	46.36533	959.71246	-954.01599	126.14641	633.1676	-1181.24438	104.62243	457.23193	-1139.29797	28.49522	275.31891	-1138.52942	-15.47306	68.57718	-1094.41675	-57.62752	34.56107	-1056.82019	135.64142	29.97602	-1079.97998	214.93753	642.07147	-861.34338	293.35001	479.16174	-894.65887	289.20917	291.00348	-887.40527	316.33633	74.39176	-926.32959	280.53445	38.95863	-982.12103	458.41721	47.16592	-937.09314	164.67734	1669.25159	-1043.83594	NaN	NaN	NaN	NaN	NaN	NaN	NaN	NaN	NaN	NaN	NaN	NaN	NaN	NaN	NaN	NaN	NaN	NaN	NaN	NaN	NaN	NaN	NaN	NaN	NaN	NaN	NaN	NaN	NaN	NaN	NaN	NaN	NaN
283	2.82	263.40152	1611.95837	-1077.30103	240.49098	1614.88562	-945.97412	137.95697	1564.60657	-1094.3584	120.76945	1567.34631	-964.67175	97.93786	1410.19458	-1041.79321	51.99089	1099.31836	-1041.53748	219.20393	1331.57605	-1029.29919	256.42593	1165.39673	-1035.65088	32.79081	1236.28748	-951.27844	192.57727	1371.66321	-1186.97644	217.81709	1182.17969	-1267.59375	250.99399	1065.46887	-1284.94714	316.16571	953.5343	-1280.38379	370.80719	849.79993	-1245.82715	352.38126	846.61102	-1298.12256	397.58438	776.76367	-1286.43359	159.80815	1352.80273	-873.45282	150.24191	1130.07861	-802.18762	164.61147	1018.06665	-789.00482	183.56859	882.57544	-788.80658	217.62866	789.09344	-825.00909	184.9675	782.35425	-782.578	210.42502	713.17517	-791.53632	217.28026	931.27887	-1151.0946	214.07423	932.78967	-913.97699	54.2262	955.263	-1102.41431	53.60682	958.2594	-953.44781	132.07649	632.49078	-1181.0144	109.09551	456.6434	-1139.32178	31.07959	275.39111	-1138.5885	-15.15835	69.07403	-1094.49695	-57.67889	35.3182	-1056.93445	135.71709	29.93533	-1079.96863	220.96786	640.54486	-860.84406	299.39572	477.55469	-894.68964	300.43655	290.03122	-887.08679	334.60654	74.29906	-925.45605	299.99533	38.12416	-981.37183	477.85611	50.22288	-936.33356	171.1142	1671.89819	-1040.56213	NaN	NaN	NaN	NaN	NaN	NaN	NaN	NaN	NaN	NaN	NaN	NaN	NaN	NaN	NaN	NaN	NaN	NaN	NaN	NaN	NaN	NaN	NaN	NaN	NaN	NaN	NaN	NaN	NaN	NaN	NaN	NaN	NaN
284	2.83	270.6116	1611.05505	-1076.13257	247.65622	1613.81445	-944.82263	145.20981	1563.64246	-1093.39441	127.89313	1566.19507	-963.73853	105.18193	1409.24561	-1040.9436	58.90061	1098.35327	-1040.90869	226.34691	1330.44763	-1028.66284	263.27625	1164.15369	-1035.25378	39.88345	1235.25647	-950.60944	199.66399	1370.6698	-1186.26746	224.91162	1181.22168	-1266.79126	258.05344	1064.58154	-1284.09314	323.97467	953.08954	-1279.3844	379.71146	850.11798	-1244.60376	360.98755	846.50861	-1296.92993	406.95715	777.12689	-1284.83167	167.10193	1351.46301	-872.72955	156.87437	1128.43359	-802.19568	170.72701	1016.29449	-789.48816	188.91612	880.67889	-789.72473	222.42427	787.04401	-826.25061	189.6382	780.40497	-783.83411	214.66888	711.03442	-793.34552	224.2915	930.37128	-1150.83411	221.79224	931.80725	-913.6795	61.295	953.82764	-1101.78406	60.92092	956.86548	-952.8139	137.94986	631.87079	-1180.85205	113.65366	456.17993	-1139.31909	33.68634	275.55032	-1138.68372	-14.7849	69.66373	-1094.66516	-57.62959	36.28324	-1057.09583	135.76379	29.86065	-1079.94592	227.19756	639.14008	-860.35156	305.41794	475.94623	-894.64795	310.88174	289.20563	-886.75763	351.41794	74.34081	-924.62262	318.13892	37.22187	-980.41711	495.73605	53.66228	-935.62366	178.15836	1670.92847	-1039.29883	NaN	NaN	NaN	NaN	NaN	NaN	NaN	NaN	NaN	NaN	NaN	NaN	NaN	NaN	NaN	NaN	NaN	NaN	NaN	NaN	NaN	NaN	NaN	NaN	NaN	NaN	NaN	NaN	NaN	NaN	NaN	NaN	NaN
285	2.84	277.80878	1610.27136	-1074.94971	254.81529	1612.74475	-943.62354	152.52437	1562.69604	-1092.39893	135.10252	1564.86853	-962.73468	112.4538	1408.3429	-1039.96545	65.78021	1097.47412	-1040.18335	233.55844	1329.33496	-1027.94031	270.3934	1163.02991	-1034.83533	47.10061	1234.27124	-949.86481	206.77844	1369.68787	-1185.45557	231.8221	1180.31946	-1265.83337	265.07071	1063.61365	-1283.2406	331.6189	952.65344	-1278.39587	388.32236	850.27917	-1243.21301	369.31409	846.19312	-1295.46985	415.9881	777.37036	-1283.20276	174.49246	1350.12732	-871.93042	163.74597	1126.87122	-802.19897	177.06261	1014.52551	-789.95172	194.44066	878.78735	-790.82996	227.18208	785.02747	-827.44604	194.46725	778.46906	-785.065	218.93712	708.87738	-794.93317	231.35783	929.54755	-1150.68494	229.52206	930.89301	-913.31989	68.4296	952.47083	-1101.02234	68.38546	955.52692	-952.0907	143.7816	631.30603	-1180.68677	118.25739	455.70294	-1139.39612	36.42645	275.74487	-1138.76746	-14.36778	70.3579	-1094.8446	-57.5435	37.28562	-1057.22595	135.79779	29.81628	-1079.95679	233.65361	637.94464	-860.02478	311.47476	474.39255	-894.62964	320.81647	288.47153	-886.3136	366.85873	74.66142	-923.69226	334.5864	36.62707	-979.58197	511.99564	56.85394	-935.00873	185.75655	1666.13135	-1040.2207	NaN	NaN	NaN	NaN	NaN	NaN	NaN	NaN	NaN	NaN	NaN	NaN	NaN	NaN	NaN	NaN	NaN	NaN	NaN	NaN	NaN	NaN	NaN	NaN	NaN	NaN	NaN	NaN	NaN	NaN	NaN	NaN	NaN
